<svg width="23" height="17" viewBox="0 0 23 17" fill="none" xmlns="http://www.w3.org/2000/svg">
<path d="M11.4924 4.13038C10.6937 4.13038 10.0103 3.97434 9.44206 3.66225C8.87285 3.35069 8.58824 2.97597 8.58824 2.53809C8.58824 2.10021 8.87285 1.72523 9.44206 1.41314C10.0103 1.10158 10.6937 0.945801 11.4924 0.945801C12.291 0.945801 12.9749 1.10158 13.5441 1.41314C14.1124 1.72523 14.3965 2.10021 14.3965 2.53809C14.3965 2.97597 14.1124 3.35069 13.5441 3.66225C12.9749 3.97434 12.291 4.13038 11.4924 4.13038ZM8.58824 16.8687C8.17682 16.8687 7.8322 16.7923 7.55437 16.6394C7.27557 16.4871 7.13618 16.2981 7.13618 16.0726V6.33968C5.20009 6.06103 3.60911 5.50718 2.36323 4.67813C1.11639 3.84854 0.335666 2.90299 0.0210512 1.84146C-0.0515521 1.60262 0.063645 1.3935 0.366643 1.2141C0.668673 1.03523 1.0617 0.945801 1.54572 0.945801C1.88454 0.945801 2.18124 1.01215 2.43584 1.14484C2.68947 1.27753 2.84048 1.43676 2.88888 1.62252C3.15509 2.56463 3.90533 3.35069 5.13959 3.9807C6.37384 4.61125 7.88641 4.92652 9.67729 4.92652H13.3075C14.0335 4.92652 14.7111 4.9995 15.3404 5.14546C15.9696 5.29142 16.5383 5.50373 17.0465 5.78238L22.6007 8.82763C22.8669 8.97359 23 9.15936 23 9.38494C23 9.61051 22.8669 9.79628 22.6007 9.94224C22.3345 10.0882 21.9957 10.1612 21.5842 10.1612C21.1728 10.1612 20.834 10.0882 20.5678 9.94224L15.8486 7.35477V16.0726C15.8486 16.2981 15.7097 16.4871 15.4318 16.6394C15.153 16.7923 14.8079 16.8687 14.3965 16.8687C13.9851 16.8687 13.6405 16.7923 13.3626 16.6394C13.0838 16.4871 12.9444 16.2981 12.9444 16.0726V12.0918H10.0403V16.0726C10.0403 16.2981 9.90139 16.4871 9.62357 16.6394C9.34477 16.7923 8.99966 16.8687 8.58824 16.8687Z" fill="#65646A"/>
</svg>
