<svg width="156" height="75" viewBox="0 0 156 75" fill="none" xmlns="http://www.w3.org/2000/svg">
<g filter="url(#filter0_f_123_9)">
<ellipse cx="77.6505" cy="35.1262" rx="35.6505" ry="35.1262" fill="url(#paint0_linear_123_9)" fill-opacity="0.5"/>
</g>
<g filter="url(#filter1_d_123_9)">
<circle cx="77.6505" cy="35.6505" r="31.4563" fill="white" fill-opacity="0.15" style="mix-blend-mode:overlay" shape-rendering="crispEdges"/>
<circle cx="77.6505" cy="35.6505" r="29.3592" stroke="url(#paint1_linear_123_9)" stroke-width="4.19417" shape-rendering="crispEdges"/>
</g>
<path d="M64.8895 37.9104C64.8895 39.2006 65.9339 40.2451 67.2241 40.2451H75.7487V48.7696C75.7487 50.0444 76.7778 51.1043 78.068 51.1043C79.3582 51.1043 80.4026 50.0444 80.4026 48.7696V40.2451H88.9271C90.202 40.2451 91.2464 39.2006 91.2464 37.9104C91.2464 36.6356 90.202 35.5911 88.9271 35.5911H80.4026V27.0666C80.4026 25.7918 79.3582 24.7319 78.068 24.7319C76.7778 24.7319 75.7487 25.7918 75.7487 27.0666V35.5911H67.2241C65.9339 35.5911 64.8895 36.6356 64.8895 37.9104Z" fill="white"/>
<defs>
<filter id="filter0_f_123_9" x="0.0582504" y="-41.9417" width="155.184" height="154.136" filterUnits="userSpaceOnUse" color-interpolation-filters="sRGB">
<feFlood flood-opacity="0" result="BackgroundImageFix"/>
<feBlend mode="normal" in="SourceGraphic" in2="BackgroundImageFix" result="shape"/>
<feGaussianBlur stdDeviation="20.9709" result="effect1_foregroundBlur_123_9"/>
</filter>
<filter id="filter1_d_123_9" x="42" y="2.09707" width="71.301" height="71.301" filterUnits="userSpaceOnUse" color-interpolation-filters="sRGB">
<feFlood flood-opacity="0" result="BackgroundImageFix"/>
<feColorMatrix in="SourceAlpha" type="matrix" values="0 0 0 0 0 0 0 0 0 0 0 0 0 0 0 0 0 0 127 0" result="hardAlpha"/>
<feOffset dy="2.09709"/>
<feGaussianBlur stdDeviation="2.09709"/>
<feComposite in2="hardAlpha" operator="out"/>
<feColorMatrix type="matrix" values="0 0 0 0 0.0705882 0 0 0 0 0.964706 0 0 0 0 0.827451 0 0 0 0.25 0"/>
<feBlend mode="normal" in2="BackgroundImageFix" result="effect1_dropShadow_123_9"/>
<feBlend mode="normal" in="SourceGraphic" in2="effect1_dropShadow_123_9" result="shape"/>
</filter>
<linearGradient id="paint0_linear_123_9" x1="55.0718" y1="10.5379" x2="102.478" y2="59.246" gradientUnits="userSpaceOnUse">
<stop stop-color="#FF53BC"/>
<stop offset="1" stop-color="#0AFCD4"/>
</linearGradient>
<linearGradient id="paint1_linear_123_9" x1="56.0885" y1="13.155" x2="101.247" y2="55.9966" gradientUnits="userSpaceOnUse">
<stop stop-color="#FE53BB"/>
<stop offset="1" stop-color="#09FBD3"/>
</linearGradient>
</defs>
</svg>
