<svg width="19" height="17" viewBox="0 0 19 17" fill="none" xmlns="http://www.w3.org/2000/svg">
<path d="M10.9844 0.0717773C10.4648 0.0717773 10.0938 0.47998 10.0938 0.962402V6.8999C10.0938 7.41943 10.4648 7.79053 10.9844 7.79053H18.1094C18.5918 7.79053 19 7.41943 19 6.8999V0.962402C19 0.47998 18.5918 0.0717773 18.1094 0.0717773H10.9844ZM8.01562 0.0717773H0.890625C0.371094 0.0717773 0 0.47998 0 0.962402V6.8999C0 7.41943 0.371094 7.79053 0.890625 7.79053H8.01562C8.49805 7.79053 8.90625 7.41943 8.90625 6.8999V0.962402C8.90625 0.47998 8.49805 0.0717773 8.01562 0.0717773ZM0 9.86865V15.8062C0 16.3257 0.371094 16.6968 0.890625 16.6968H8.01562C8.49805 16.6968 8.90625 16.3257 8.90625 15.8062V9.86865C8.90625 9.38623 8.49805 8.97803 8.01562 8.97803H0.890625C0.371094 8.97803 0 9.38623 0 9.86865ZM10.9844 16.6968H18.1094C18.5918 16.6968 19 16.3257 19 15.8062V9.86865C19 9.38623 18.5918 8.97803 18.1094 8.97803H10.9844C10.4648 8.97803 10.0938 9.38623 10.0938 9.86865V15.8062C10.0938 16.3257 10.4648 16.6968 10.9844 16.6968Z" fill="#6F4FF2"/>
</svg>
