<svg width="22" height="17" viewBox="0 0 22 17" fill="none" xmlns="http://www.w3.org/2000/svg">
<path d="M11.11 14.1756L11 14.2624L10.879 14.1756C5.654 10.4357 2.2 7.96265 2.2 5.4549C2.2 3.71944 3.85 2.41784 6.05 2.41784C7.744 2.41784 9.394 3.28557 9.977 4.46569H12.023C12.606 3.28557 14.256 2.41784 15.95 2.41784C18.15 2.41784 19.8 3.71944 19.8 5.4549C19.8 7.96265 16.346 10.4357 11.11 14.1756ZM15.95 0.682373C14.036 0.682373 12.199 1.38524 11 2.48726C9.801 1.38524 7.964 0.682373 6.05 0.682373C2.662 0.682373 0 2.77361 0 5.4549C0 8.72626 3.74 11.4075 9.405 15.4599L11 16.6053L12.595 15.4599C18.26 11.4075 22 8.72626 22 5.4549C22 2.77361 19.338 0.682373 15.95 0.682373Z" fill="#65646A"/>
</svg>
