<svg width="50" height="41" viewBox="0 0 50 41" fill="none" xmlns="http://www.w3.org/2000/svg">
    <path fill-rule="evenodd" clip-rule="evenodd" d="M22.8705 24.5176C19.5523 24.5176 18.058 25.1319 17.218 25.6526C17.0905 25.7316 16.9346 25.9299 16.9346 26.2765V33.8099C16.9346 34.3032 17.3116 34.6943 17.8047 34.809C21.3788 35.6399 26.8469 36.4955 32.5888 35.6395C36.0294 35.1265 38.207 34.1835 39.6251 33.2043C41.0428 32.2255 41.7918 31.1485 42.2632 30.2467C43.4101 28.0521 43.0267 26.9172 42.7079 26.5214C42.5476 26.3224 42.3902 26.2716 42.3234 26.26C42.259 26.249 42.2172 26.2593 42.1759 26.2864C41.1866 26.9354 40.4436 27.5036 39.8085 28.0035C39.7069 28.0835 39.6057 28.1637 39.5049 28.2436C38.9996 28.644 38.5041 29.0367 38.0102 29.3607C37.3788 29.7749 36.6919 30.1198 35.8179 30.3491C34.9627 30.5735 34.0082 30.6663 32.8683 30.6663H25.3699C24.507 30.6663 23.8074 30.0926 23.8074 29.385C23.8074 28.6774 24.507 28.1038 25.3699 28.1038H30.7044C30.6558 27.9904 30.6053 27.8696 30.5528 27.7406C30.1117 26.6555 29.4743 25.9187 28.4433 25.4136C27.3561 24.881 25.6513 24.5176 22.8705 24.5176ZM34.0279 28.0527C33.8991 27.8071 33.7293 27.4514 33.5175 26.9303C32.9047 25.4229 31.8758 24.1101 30.046 23.2138C28.2723 22.3449 25.9217 21.9551 22.8705 21.9551C19.0279 21.9551 16.8286 22.6818 15.3337 23.6083C14.2269 24.2943 13.8096 25.3546 13.8096 26.2765V33.8099C13.8096 35.3754 15.0299 36.8274 16.9523 37.2743C20.7429 38.1556 26.7391 39.1161 33.1478 38.1606C37.0389 37.5805 39.7413 36.474 41.6379 35.1645C43.535 33.8546 44.5356 32.4039 45.1355 31.2561C46.4879 28.6684 46.4548 26.5239 45.3156 25.1093C44.169 23.6856 41.8948 23.1892 40.2238 24.2854C39.1302 25.0028 38.3111 25.6301 37.6443 26.155C37.522 26.2513 37.4073 26.3421 37.2989 26.4279C36.7953 26.8263 36.4275 27.1174 36.058 27.3597C35.6479 27.6288 35.2934 27.7962 34.8655 27.9085C34.6365 27.9686 34.3651 28.0184 34.0279 28.0527Z" fill="white"/>
    <path d="M7.08301 23.9195C7.08301 22.4103 8.57507 21.1868 10.4156 21.1868H13.7482C15.5888 21.1868 17.0809 22.4103 17.0809 23.9195V34.8505C17.0809 36.3598 15.5888 37.5832 13.7482 37.5832H10.4156C8.57507 37.5832 7.08301 36.3598 7.08301 34.8505V23.9195Z" fill="#F9F8FF"/>
    <path fill-rule="evenodd" clip-rule="evenodd" d="M27.75 13.863C27.75 10.6788 30.898 8.09741 34.7812 8.09741C38.6645 8.09741 41.8125 10.6788 41.8125 13.863C41.8125 17.0473 38.6645 19.6287 34.7812 19.6287C30.898 19.6287 27.75 17.0473 27.75 13.863Z" fill="#FFD700"/>
    <path fill-rule="evenodd" clip-rule="evenodd" d="M28.5312 2.97241C24.648 2.97241 21.5 5.55377 21.5 8.73804C21.5 11.4107 23.7178 13.6587 26.7266 14.312C26.7145 14.1636 26.7083 14.0139 26.7083 13.863C26.7083 10.207 30.3227 7.24325 34.7812 7.24325C34.9653 7.24325 35.1478 7.2483 35.3288 7.25823C34.532 4.79099 31.7906 2.97241 28.5312 2.97241Z" fill="#FFD700"/>
    </svg>
    