<svg width="1001" height="774" viewBox="0 0 1001 774" fill="none" xmlns="http://www.w3.org/2000/svg">
    <rect width="1001" height="774" rx="70" fill="#6F4FF2" fill-opacity="0.65"/>
    <path d="M48.4 237L51.9 219.5H55.925L60.75 231.425H58.625L67.975 219.5H72.2L68.75 237H64.175L66.25 226.4L67.075 226.375L60.15 235.275H57.975L54.2 226.35L55.075 226.425L52.95 237H48.4ZM79.6775 237.225C78.2275 237.225 76.9609 236.975 75.8775 236.475C74.8109 235.958 73.9775 235.242 73.3775 234.325C72.7775 233.392 72.4775 232.3 72.4775 231.05C72.4775 229.55 72.8192 228.217 73.5025 227.05C74.1859 225.867 75.1442 224.933 76.3775 224.25C77.6109 223.567 79.0442 223.225 80.6775 223.225C82.0609 223.225 83.2442 223.475 84.2275 223.975C85.2275 224.475 85.9942 225.175 86.5275 226.075C87.0775 226.958 87.3525 227.992 87.3525 229.175C87.3525 229.575 87.3275 229.958 87.2775 230.325C87.2275 230.692 87.1609 231.05 87.0775 231.4H76.2025L76.6525 228.9H84.8775L82.9025 229.625C83.0359 228.975 83.0109 228.433 82.8275 228C82.6609 227.55 82.3692 227.208 81.9525 226.975C81.5525 226.725 81.0525 226.6 80.4525 226.6C79.6859 226.6 79.0525 226.792 78.5525 227.175C78.0692 227.558 77.7025 228.083 77.4525 228.75C77.2192 229.4 77.1025 230.108 77.1025 230.875C77.1025 231.808 77.3609 232.5 77.8775 232.95C78.3942 233.383 79.1692 233.6 80.2025 233.6C80.8025 233.6 81.3859 233.508 81.9525 233.325C82.5359 233.125 83.0442 232.85 83.4775 232.5L85.4525 235.475C84.6025 236.108 83.6775 236.558 82.6775 236.825C81.6942 237.092 80.6942 237.225 79.6775 237.225ZM107.995 223.225C109.078 223.225 110.012 223.467 110.795 223.95C111.578 224.417 112.137 225.117 112.47 226.05C112.82 226.967 112.853 228.117 112.57 229.5L111.095 237H106.345L107.745 230C107.928 229.083 107.87 228.4 107.57 227.95C107.287 227.483 106.812 227.25 106.145 227.25C105.428 227.25 104.82 227.483 104.32 227.95C103.837 228.4 103.487 229.142 103.27 230.175L101.895 237H97.1449L98.5699 230C98.7533 229.083 98.6949 228.4 98.3949 227.95C98.1116 227.483 97.6366 227.25 96.9699 227.25C96.2533 227.25 95.6449 227.483 95.1449 227.95C94.6449 228.417 94.2866 229.175 94.0699 230.225L92.7199 237H87.9699L90.6699 223.45H95.1699L94.5199 226.6L93.8199 226.15C94.4366 225.15 95.1949 224.417 96.0949 223.95C97.0116 223.467 97.9616 223.225 98.9449 223.225C99.7449 223.225 100.47 223.375 101.12 223.675C101.787 223.958 102.337 224.4 102.77 225C103.203 225.583 103.462 226.325 103.545 227.225L102.07 226.8C102.687 225.65 103.503 224.767 104.52 224.15C105.537 223.533 106.695 223.225 107.995 223.225ZM114.093 237L117.793 218.45H122.543L121.093 225.75L119.943 230.175L119.218 233.95L118.618 237H114.093ZM123.318 237.225C122.351 237.225 121.493 237.058 120.743 236.725C119.993 236.375 119.41 235.833 118.993 235.1C118.576 234.35 118.368 233.383 118.368 232.2C118.368 231 118.51 229.867 118.793 228.8C119.076 227.717 119.493 226.758 120.043 225.925C120.61 225.092 121.301 224.433 122.118 223.95C122.935 223.467 123.876 223.225 124.943 223.225C125.926 223.225 126.851 223.467 127.718 223.95C128.601 224.433 129.31 225.133 129.843 226.05C130.393 226.95 130.668 228.058 130.668 229.375C130.668 230.508 130.476 231.55 130.093 232.5C129.71 233.45 129.176 234.283 128.493 235C127.826 235.7 127.051 236.25 126.168 236.65C125.285 237.033 124.335 237.225 123.318 237.225ZM122.643 233.4C123.276 233.4 123.835 233.242 124.318 232.925C124.801 232.608 125.176 232.167 125.443 231.6C125.726 231.033 125.868 230.375 125.868 229.625C125.868 228.842 125.643 228.217 125.193 227.75C124.743 227.267 124.11 227.025 123.293 227.025C122.676 227.025 122.118 227.192 121.618 227.525C121.135 227.842 120.751 228.283 120.468 228.85C120.201 229.417 120.068 230.075 120.068 230.825C120.068 231.608 120.293 232.233 120.743 232.7C121.193 233.167 121.826 233.4 122.643 233.4ZM139.126 237.225C137.676 237.225 136.409 236.975 135.326 236.475C134.259 235.958 133.426 235.242 132.826 234.325C132.226 233.392 131.926 232.3 131.926 231.05C131.926 229.55 132.267 228.217 132.951 227.05C133.634 225.867 134.592 224.933 135.826 224.25C137.059 223.567 138.492 223.225 140.126 223.225C141.509 223.225 142.692 223.475 143.676 223.975C144.676 224.475 145.442 225.175 145.976 226.075C146.526 226.958 146.801 227.992 146.801 229.175C146.801 229.575 146.776 229.958 146.726 230.325C146.676 230.692 146.609 231.05 146.526 231.4H135.651L136.101 228.9H144.326L142.351 229.625C142.484 228.975 142.459 228.433 142.276 228C142.109 227.55 141.817 227.208 141.401 226.975C141.001 226.725 140.501 226.6 139.901 226.6C139.134 226.6 138.501 226.792 138.001 227.175C137.517 227.558 137.151 228.083 136.901 228.75C136.667 229.4 136.551 230.108 136.551 230.875C136.551 231.808 136.809 232.5 137.326 232.95C137.842 233.383 138.617 233.6 139.651 233.6C140.251 233.6 140.834 233.508 141.401 233.325C141.984 233.125 142.492 232.85 142.926 232.5L144.901 235.475C144.051 236.108 143.126 236.558 142.126 236.825C141.142 237.092 140.142 237.225 139.126 237.225ZM147.418 237L150.118 223.45H154.618L153.843 227.3L153.393 226.2C153.993 225.117 154.785 224.35 155.768 223.9C156.751 223.45 157.901 223.225 159.218 223.225L158.393 227.5C158.193 227.467 158.01 227.45 157.843 227.45C157.676 227.433 157.501 227.425 157.318 227.425C156.285 227.425 155.435 227.675 154.768 228.175C154.118 228.658 153.685 229.467 153.468 230.6L152.168 237H147.418ZM163.802 237.225C162.602 237.225 161.469 237.1 160.402 236.85C159.335 236.583 158.51 236.267 157.927 235.9L159.652 232.575C160.285 232.975 161.027 233.283 161.877 233.5C162.727 233.717 163.552 233.825 164.352 233.825C165.135 233.825 165.694 233.742 166.027 233.575C166.36 233.392 166.527 233.15 166.527 232.85C166.527 232.583 166.352 232.392 166.002 232.275C165.669 232.142 165.235 232.033 164.702 231.95C164.169 231.867 163.602 231.758 163.002 231.625C162.419 231.492 161.86 231.3 161.327 231.05C160.794 230.8 160.352 230.45 160.002 230C159.669 229.533 159.502 228.917 159.502 228.15C159.502 227.067 159.819 226.158 160.452 225.425C161.085 224.692 161.944 224.142 163.027 223.775C164.127 223.408 165.36 223.225 166.727 223.225C167.694 223.225 168.627 223.317 169.527 223.5C170.427 223.683 171.21 223.95 171.877 224.3L170.202 227.625C169.535 227.225 168.852 226.958 168.152 226.825C167.452 226.675 166.794 226.6 166.177 226.6C165.394 226.6 164.835 226.7 164.502 226.9C164.169 227.1 164.002 227.342 164.002 227.625C164.002 227.875 164.169 228.075 164.502 228.225C164.852 228.358 165.285 228.475 165.802 228.575C166.335 228.658 166.902 228.767 167.502 228.9C168.102 229.017 168.66 229.2 169.177 229.45C169.71 229.7 170.144 230.05 170.477 230.5C170.827 230.95 171.002 231.558 171.002 232.325C171.002 233.392 170.677 234.292 170.027 235.025C169.394 235.758 168.535 236.308 167.452 236.675C166.369 237.042 165.152 237.225 163.802 237.225ZM183.349 223.225C184.466 223.225 185.424 223.467 186.224 223.95C187.041 224.417 187.624 225.117 187.974 226.05C188.324 226.967 188.357 228.117 188.074 229.5L186.574 237H181.824L183.224 229.95C183.407 229.083 183.349 228.417 183.049 227.95C182.766 227.483 182.232 227.25 181.449 227.25C180.649 227.25 179.974 227.5 179.424 228C178.874 228.5 178.491 229.267 178.274 230.3L176.924 237H172.174L175.874 218.45H180.624L178.874 227.225L177.999 226.15C178.649 225.133 179.449 224.392 180.399 223.925C181.366 223.458 182.349 223.225 183.349 223.225ZM189.581 237L192.281 223.45H197.006L194.306 237H189.581ZM195.306 221.95C194.473 221.95 193.806 221.725 193.306 221.275C192.823 220.808 192.581 220.25 192.581 219.6C192.581 218.833 192.856 218.192 193.406 217.675C193.973 217.158 194.715 216.9 195.631 216.9C196.465 216.9 197.131 217.117 197.631 217.55C198.131 217.983 198.381 218.525 198.381 219.175C198.381 219.992 198.098 220.658 197.531 221.175C196.965 221.692 196.223 221.95 195.306 221.95ZM206.594 237.225C205.511 237.225 204.569 237.017 203.769 236.6C202.969 236.167 202.386 235.475 202.019 234.525C201.653 233.575 201.569 232.308 201.769 230.725C201.936 229.175 202.294 227.842 202.844 226.725C203.411 225.608 204.144 224.75 205.044 224.15C205.961 223.533 207.019 223.225 208.219 223.225C209.203 223.225 210.128 223.467 210.994 223.95C211.878 224.433 212.586 225.133 213.119 226.05C213.669 226.95 213.944 228.058 213.944 229.375C213.944 230.508 213.753 231.55 213.369 232.5C212.986 233.45 212.453 234.283 211.769 235C211.103 235.7 210.328 236.25 209.444 236.65C208.561 237.033 207.611 237.225 206.594 237.225ZM196.394 241.85L200.069 223.45H204.569L204.094 225.725L203.219 230.2L202.594 234.65L201.144 241.85H196.394ZM205.919 233.4C206.553 233.4 207.111 233.242 207.594 232.925C208.078 232.608 208.453 232.167 208.719 231.6C209.003 231.033 209.144 230.375 209.144 229.625C209.144 228.842 208.919 228.217 208.469 227.75C208.019 227.267 207.386 227.025 206.569 227.025C205.953 227.025 205.394 227.192 204.894 227.525C204.411 227.842 204.028 228.283 203.744 228.85C203.478 229.417 203.344 230.075 203.344 230.825C203.344 231.608 203.569 232.233 204.019 232.7C204.469 233.167 205.103 233.4 205.919 233.4Z" fill="#E3E1E1"/>
    <path d="M47.775 342L55.575 324.5H59.575L67.4 342H63.15L56.75 326.55H58.35L51.925 342H47.775ZM51.675 338.25L52.75 335.175H61.75L62.85 338.25H51.675ZM74.5936 342.2C73.3269 342.2 72.1852 341.917 71.1686 341.35C70.1519 340.767 69.3436 339.958 68.7436 338.925C68.1602 337.892 67.8686 336.675 67.8686 335.275C67.8686 333.858 68.1602 332.633 68.7436 331.6C69.3436 330.567 70.1519 329.767 71.1686 329.2C72.1852 328.633 73.3269 328.35 74.5936 328.35C75.7269 328.35 76.7186 328.6 77.5686 329.1C78.4186 329.6 79.0769 330.358 79.5436 331.375C80.0102 332.392 80.2436 333.692 80.2436 335.275C80.2436 336.842 80.0186 338.142 79.5686 339.175C79.1186 340.192 78.4686 340.95 77.6186 341.45C76.7852 341.95 75.7769 342.2 74.5936 342.2ZM75.2686 339C75.9019 339 76.4769 338.85 76.9936 338.55C77.5102 338.25 77.9186 337.825 78.2186 337.275C78.5352 336.708 78.6936 336.042 78.6936 335.275C78.6936 334.492 78.5352 333.825 78.2186 333.275C77.9186 332.725 77.5102 332.3 76.9936 332C76.4769 331.7 75.9019 331.55 75.2686 331.55C74.6186 331.55 74.0352 331.7 73.5186 332C73.0019 332.3 72.5852 332.725 72.2686 333.275C71.9686 333.825 71.8186 334.492 71.8186 335.275C71.8186 336.042 71.9686 336.708 72.2686 337.275C72.5852 337.825 73.0019 338.25 73.5186 338.55C74.0352 338.85 74.6186 339 75.2686 339ZM78.7936 342V339.25L78.8686 335.25L78.6186 331.275V323.45H82.5186V342H78.7936ZM89.7781 342L84.1281 328.55H88.1531L92.8531 340.125H90.8531L95.7281 328.55H99.4781L93.8031 342H89.7781ZM108.88 342V339.375L108.63 338.8V334.1C108.63 333.267 108.372 332.617 107.855 332.15C107.355 331.683 106.58 331.45 105.53 331.45C104.813 331.45 104.105 331.567 103.405 331.8C102.722 332.017 102.138 332.317 101.655 332.7L100.255 329.975C100.988 329.458 101.872 329.058 102.905 328.775C103.938 328.492 104.988 328.35 106.055 328.35C108.105 328.35 109.697 328.833 110.83 329.8C111.963 330.767 112.53 332.275 112.53 334.325V342H108.88ZM104.78 342.2C103.73 342.2 102.83 342.025 102.08 341.675C101.33 341.308 100.755 340.817 100.355 340.2C99.9551 339.583 99.7551 338.892 99.7551 338.125C99.7551 337.325 99.9467 336.625 100.33 336.025C100.73 335.425 101.355 334.958 102.205 334.625C103.055 334.275 104.163 334.1 105.53 334.1H109.105V336.375H105.955C105.038 336.375 104.405 336.525 104.055 336.825C103.722 337.125 103.555 337.5 103.555 337.95C103.555 338.45 103.747 338.85 104.13 339.15C104.53 339.433 105.072 339.575 105.755 339.575C106.405 339.575 106.988 339.425 107.505 339.125C108.022 338.808 108.397 338.35 108.63 337.75L109.23 339.55C108.947 340.417 108.43 341.075 107.68 341.525C106.93 341.975 105.963 342.2 104.78 342.2ZM124.235 328.35C125.301 328.35 126.251 328.567 127.085 329C127.935 329.417 128.601 330.067 129.085 330.95C129.568 331.817 129.81 332.933 129.81 334.3V342H125.91V334.9C125.91 333.817 125.668 333.017 125.185 332.5C124.718 331.983 124.051 331.725 123.185 331.725C122.568 331.725 122.01 331.858 121.51 332.125C121.026 332.375 120.643 332.767 120.36 333.3C120.093 333.833 119.96 334.517 119.96 335.35V342H116.06V328.55H119.785V332.275L119.085 331.15C119.568 330.25 120.26 329.558 121.16 329.075C122.06 328.592 123.085 328.35 124.235 328.35ZM139.943 342.2C138.493 342.2 137.201 341.908 136.068 341.325C134.934 340.725 134.043 339.9 133.393 338.85C132.759 337.8 132.443 336.608 132.443 335.275C132.443 333.925 132.759 332.733 133.393 331.7C134.043 330.65 134.934 329.833 136.068 329.25C137.201 328.65 138.493 328.35 139.943 328.35C141.359 328.35 142.593 328.65 143.643 329.25C144.693 329.833 145.468 330.675 145.968 331.775L142.943 333.4C142.593 332.767 142.151 332.3 141.618 332C141.101 331.7 140.534 331.55 139.918 331.55C139.251 331.55 138.651 331.7 138.118 332C137.584 332.3 137.159 332.725 136.843 333.275C136.543 333.825 136.393 334.492 136.393 335.275C136.393 336.058 136.543 336.725 136.843 337.275C137.159 337.825 137.584 338.25 138.118 338.55C138.651 338.85 139.251 339 139.918 339C140.534 339 141.101 338.858 141.618 338.575C142.151 338.275 142.593 337.8 142.943 337.15L145.968 338.8C145.468 339.883 144.693 340.725 143.643 341.325C142.593 341.908 141.359 342.2 139.943 342.2ZM154.717 342.2C153.184 342.2 151.834 341.9 150.667 341.3C149.517 340.7 148.626 339.883 147.992 338.85C147.359 337.8 147.042 336.608 147.042 335.275C147.042 333.925 147.351 332.733 147.967 331.7C148.601 330.65 149.459 329.833 150.542 329.25C151.626 328.65 152.851 328.35 154.217 328.35C155.534 328.35 156.717 328.633 157.767 329.2C158.834 329.75 159.676 330.55 160.292 331.6C160.909 332.633 161.217 333.875 161.217 335.325C161.217 335.475 161.209 335.65 161.192 335.85C161.176 336.033 161.159 336.208 161.142 336.375H150.217V334.1H159.092L157.592 334.775C157.592 334.075 157.451 333.467 157.167 332.95C156.884 332.433 156.492 332.033 155.992 331.75C155.492 331.45 154.909 331.3 154.242 331.3C153.576 331.3 152.984 331.45 152.467 331.75C151.967 332.033 151.576 332.442 151.292 332.975C151.009 333.492 150.867 334.108 150.867 334.825V335.425C150.867 336.158 151.026 336.808 151.342 337.375C151.676 337.925 152.134 338.35 152.717 338.65C153.317 338.933 154.017 339.075 154.817 339.075C155.534 339.075 156.159 338.967 156.692 338.75C157.242 338.533 157.742 338.208 158.192 337.775L160.267 340.025C159.651 340.725 158.876 341.267 157.942 341.65C157.009 342.017 155.934 342.2 154.717 342.2ZM169.589 342.2C168.322 342.2 167.18 341.917 166.164 341.35C165.147 340.767 164.339 339.958 163.739 338.925C163.155 337.892 162.864 336.675 162.864 335.275C162.864 333.858 163.155 332.633 163.739 331.6C164.339 330.567 165.147 329.767 166.164 329.2C167.18 328.633 168.322 328.35 169.589 328.35C170.722 328.35 171.714 328.6 172.564 329.1C173.414 329.6 174.072 330.358 174.539 331.375C175.005 332.392 175.239 333.692 175.239 335.275C175.239 336.842 175.014 338.142 174.564 339.175C174.114 340.192 173.464 340.95 172.614 341.45C171.78 341.95 170.772 342.2 169.589 342.2ZM170.264 339C170.897 339 171.472 338.85 171.989 338.55C172.505 338.25 172.914 337.825 173.214 337.275C173.53 336.708 173.689 336.042 173.689 335.275C173.689 334.492 173.53 333.825 173.214 333.275C172.914 332.725 172.505 332.3 171.989 332C171.472 331.7 170.897 331.55 170.264 331.55C169.614 331.55 169.03 331.7 168.514 332C167.997 332.3 167.58 332.725 167.264 333.275C166.964 333.825 166.814 334.492 166.814 335.275C166.814 336.042 166.964 336.708 167.264 337.275C167.58 337.825 167.997 338.25 168.514 338.55C169.03 338.85 169.614 339 170.264 339ZM173.789 342V339.25L173.864 335.25L173.614 331.275V323.45H177.514V342H173.789ZM188.478 342V324.5H196.053C197.62 324.5 198.97 324.758 200.103 325.275C201.237 325.775 202.112 326.5 202.728 327.45C203.345 328.4 203.653 329.533 203.653 330.85C203.653 332.15 203.345 333.275 202.728 334.225C202.112 335.175 201.237 335.908 200.103 336.425C198.97 336.925 197.62 337.175 196.053 337.175H190.728L192.528 335.35V342H188.478ZM192.528 335.8L190.728 333.875H195.828C197.078 333.875 198.012 333.608 198.628 333.075C199.245 332.542 199.553 331.8 199.553 330.85C199.553 329.883 199.245 329.133 198.628 328.6C198.012 328.067 197.078 327.8 195.828 327.8H190.728L192.528 325.875V335.8ZM206.514 342V323.45H210.414V342H206.514ZM222.283 342V339.375L222.033 338.8V334.1C222.033 333.267 221.775 332.617 221.258 332.15C220.758 331.683 219.983 331.45 218.933 331.45C218.217 331.45 217.508 331.567 216.808 331.8C216.125 332.017 215.542 332.317 215.058 332.7L213.658 329.975C214.392 329.458 215.275 329.058 216.308 328.775C217.342 328.492 218.392 328.35 219.458 328.35C221.508 328.35 223.1 328.833 224.233 329.8C225.367 330.767 225.933 332.275 225.933 334.325V342H222.283ZM218.183 342.2C217.133 342.2 216.233 342.025 215.483 341.675C214.733 341.308 214.158 340.817 213.758 340.2C213.358 339.583 213.158 338.892 213.158 338.125C213.158 337.325 213.35 336.625 213.733 336.025C214.133 335.425 214.758 334.958 215.608 334.625C216.458 334.275 217.567 334.1 218.933 334.1H222.508V336.375H219.358C218.442 336.375 217.808 336.525 217.458 336.825C217.125 337.125 216.958 337.5 216.958 337.95C216.958 338.45 217.15 338.85 217.533 339.15C217.933 339.433 218.475 339.575 219.158 339.575C219.808 339.575 220.392 339.425 220.908 339.125C221.425 338.808 221.8 338.35 222.033 337.75L222.633 339.55C222.35 340.417 221.833 341.075 221.083 341.525C220.333 341.975 219.367 342.2 218.183 342.2ZM237.638 328.35C238.705 328.35 239.655 328.567 240.488 329C241.338 329.417 242.005 330.067 242.488 330.95C242.971 331.817 243.213 332.933 243.213 334.3V342H239.313V334.9C239.313 333.817 239.071 333.017 238.588 332.5C238.121 331.983 237.455 331.725 236.588 331.725C235.971 331.725 235.413 331.858 234.913 332.125C234.43 332.375 234.046 332.767 233.763 333.3C233.496 333.833 233.363 334.517 233.363 335.35V342H229.463V328.55H233.188V332.275L232.488 331.15C232.971 330.25 233.663 329.558 234.563 329.075C235.463 328.592 236.488 328.35 237.638 328.35Z" fill="white"/>
    <path d="M91.36 441L85.12 427H86.24L92.2 440.38H91.58L97.56 427H98.62L92.38 441H91.36ZM100.421 441V430.56H101.421V441H100.421ZM100.921 428.02C100.694 428.02 100.501 427.94 100.341 427.78C100.181 427.62 100.101 427.433 100.101 427.22C100.101 426.993 100.181 426.8 100.341 426.64C100.501 426.48 100.694 426.4 100.921 426.4C101.161 426.4 101.354 426.48 101.501 426.64C101.661 426.787 101.741 426.973 101.741 427.2C101.741 427.427 101.661 427.62 101.501 427.78C101.354 427.94 101.161 428.02 100.921 428.02ZM109.876 441.08C108.822 441.08 107.889 440.853 107.076 440.4C106.276 439.947 105.642 439.32 105.176 438.52C104.722 437.72 104.496 436.807 104.496 435.78C104.496 434.74 104.709 433.827 105.136 433.04C105.576 432.24 106.176 431.613 106.936 431.16C107.696 430.707 108.549 430.48 109.496 430.48C110.442 430.48 111.289 430.7 112.036 431.14C112.796 431.58 113.389 432.2 113.816 433C114.256 433.787 114.476 434.7 114.476 435.74C114.476 435.78 114.469 435.827 114.456 435.88C114.456 435.92 114.456 435.967 114.456 436.02H105.236V435.24H113.916L113.516 435.62C113.529 434.807 113.356 434.08 112.996 433.44C112.649 432.787 112.176 432.28 111.576 431.92C110.976 431.547 110.282 431.36 109.496 431.36C108.722 431.36 108.029 431.547 107.416 431.92C106.816 432.28 106.342 432.787 105.996 433.44C105.649 434.08 105.476 434.813 105.476 435.64V435.82C105.476 436.673 105.662 437.433 106.036 438.1C106.422 438.753 106.949 439.267 107.616 439.64C108.282 440 109.042 440.18 109.896 440.18C110.562 440.18 111.182 440.06 111.756 439.82C112.342 439.58 112.836 439.213 113.236 438.72L113.816 439.38C113.362 439.94 112.789 440.367 112.096 440.66C111.416 440.94 110.676 441.08 109.876 441.08ZM119.414 441L115.454 430.56H116.414L120.094 440.44H119.674L123.454 430.56H124.314L128.074 440.44H127.634L131.374 430.56H132.294L128.334 441H127.394L123.714 431.52H124.034L120.334 441H119.414ZM144.997 441.08C144.077 441.08 143.243 440.867 142.497 440.44C141.763 440.013 141.177 439.407 140.737 438.62C140.31 437.82 140.097 436.873 140.097 435.78C140.097 434.687 140.31 433.747 140.737 432.96C141.177 432.16 141.763 431.547 142.497 431.12C143.243 430.693 144.077 430.48 144.997 430.48C145.983 430.48 146.863 430.707 147.637 431.16C148.423 431.6 149.037 432.22 149.477 433.02C149.93 433.82 150.157 434.74 150.157 435.78C150.157 436.82 149.93 437.74 149.477 438.54C149.037 439.34 148.423 439.967 147.637 440.42C146.863 440.86 145.983 441.08 144.997 441.08ZM139.757 444.88V430.56H140.717V433.98L140.557 435.8L140.757 437.62V444.88H139.757ZM144.937 440.18C145.737 440.18 146.457 440 147.097 439.64C147.737 439.267 148.237 438.747 148.597 438.08C148.97 437.413 149.157 436.647 149.157 435.78C149.157 434.9 148.97 434.133 148.597 433.48C148.237 432.813 147.737 432.3 147.097 431.94C146.457 431.567 145.737 431.38 144.937 431.38C144.137 431.38 143.417 431.567 142.777 431.94C142.15 432.3 141.65 432.813 141.277 433.48C140.917 434.133 140.737 434.9 140.737 435.78C140.737 436.647 140.917 437.413 141.277 438.08C141.65 438.747 142.15 439.267 142.777 439.64C143.417 440 144.137 440.18 144.937 440.18ZM153.253 441V426.16H154.253V441H153.253ZM165.048 441V438.62L165.008 438.26V434.34C165.008 433.367 164.741 432.627 164.208 432.12C163.688 431.613 162.921 431.36 161.908 431.36C161.188 431.36 160.514 431.487 159.888 431.74C159.274 431.98 158.748 432.293 158.308 432.68L157.808 431.96C158.328 431.493 158.954 431.133 159.688 430.88C160.421 430.613 161.188 430.48 161.988 430.48C163.281 430.48 164.274 430.807 164.968 431.46C165.661 432.113 166.008 433.087 166.008 434.38V441H165.048ZM161.288 441.08C160.514 441.08 159.841 440.96 159.268 440.72C158.708 440.467 158.274 440.113 157.968 439.66C157.674 439.207 157.528 438.687 157.528 438.1C157.528 437.567 157.648 437.087 157.888 436.66C158.141 436.22 158.554 435.867 159.128 435.6C159.701 435.32 160.468 435.18 161.428 435.18H165.268V435.96H161.448C160.368 435.96 159.608 436.16 159.168 436.56C158.741 436.96 158.528 437.46 158.528 438.06C158.528 438.727 158.781 439.26 159.288 439.66C159.794 440.06 160.508 440.26 161.428 440.26C162.308 440.26 163.048 440.06 163.648 439.66C164.261 439.26 164.714 438.68 165.008 437.92L165.288 438.6C165.008 439.36 164.528 439.967 163.848 440.42C163.181 440.86 162.328 441.08 161.288 441.08ZM175.228 430.48C176.081 430.48 176.821 430.647 177.448 430.98C178.088 431.3 178.581 431.793 178.928 432.46C179.288 433.113 179.468 433.927 179.468 434.9V441H178.468V434.98C178.468 433.807 178.168 432.913 177.568 432.3C176.981 431.687 176.154 431.38 175.088 431.38C174.274 431.38 173.568 431.547 172.968 431.88C172.368 432.213 171.908 432.68 171.588 433.28C171.281 433.88 171.128 434.6 171.128 435.44V441H170.128V430.56H171.088V433.46L170.948 433.14C171.268 432.313 171.794 431.667 172.528 431.2C173.261 430.72 174.161 430.48 175.228 430.48ZM192.742 441.08C191.768 441.08 190.888 440.86 190.102 440.42C189.328 439.967 188.715 439.34 188.262 438.54C187.808 437.74 187.582 436.82 187.582 435.78C187.582 434.727 187.808 433.807 188.262 433.02C188.715 432.22 189.328 431.6 190.102 431.16C190.888 430.707 191.768 430.48 192.742 430.48C193.662 430.48 194.488 430.693 195.222 431.12C195.968 431.547 196.555 432.153 196.982 432.94C197.422 433.727 197.642 434.673 197.642 435.78C197.642 436.86 197.428 437.8 197.002 438.6C196.575 439.4 195.988 440.013 195.242 440.44C194.508 440.867 193.675 441.08 192.742 441.08ZM192.802 440.18C193.602 440.18 194.315 440 194.942 439.64C195.582 439.267 196.082 438.747 196.442 438.08C196.815 437.413 197.002 436.647 197.002 435.78C197.002 434.9 196.815 434.133 196.442 433.48C196.082 432.813 195.582 432.3 194.942 431.94C194.315 431.567 193.602 431.38 192.802 431.38C192.002 431.38 191.282 431.567 190.642 431.94C190.015 432.3 189.515 432.813 189.142 433.48C188.782 434.133 188.602 434.9 188.602 435.78C188.602 436.647 188.782 437.413 189.142 438.08C189.515 438.747 190.015 439.267 190.642 439.64C191.282 440 192.002 440.18 192.802 440.18ZM197.022 441V437.58L197.202 435.76L197.002 433.94V426.16H198.002V441H197.022ZM206.458 441.08C205.404 441.08 204.471 440.853 203.658 440.4C202.858 439.947 202.224 439.32 201.758 438.52C201.304 437.72 201.078 436.807 201.078 435.78C201.078 434.74 201.291 433.827 201.718 433.04C202.158 432.24 202.758 431.613 203.518 431.16C204.278 430.707 205.131 430.48 206.078 430.48C207.024 430.48 207.871 430.7 208.618 431.14C209.378 431.58 209.971 432.2 210.398 433C210.838 433.787 211.058 434.7 211.058 435.74C211.058 435.78 211.051 435.827 211.038 435.88C211.038 435.92 211.038 435.967 211.038 436.02H201.818V435.24H210.498L210.098 435.62C210.111 434.807 209.938 434.08 209.578 433.44C209.231 432.787 208.758 432.28 208.158 431.92C207.558 431.547 206.864 431.36 206.078 431.36C205.304 431.36 204.611 431.547 203.998 431.92C203.398 432.28 202.924 432.787 202.578 433.44C202.231 434.08 202.058 434.813 202.058 435.64V435.82C202.058 436.673 202.244 437.433 202.618 438.1C203.004 438.753 203.531 439.267 204.198 439.64C204.864 440 205.624 440.18 206.478 440.18C207.144 440.18 207.764 440.06 208.338 439.82C208.924 439.58 209.418 439.213 209.818 438.72L210.398 439.38C209.944 439.94 209.371 440.367 208.678 440.66C207.998 440.94 207.258 441.08 206.458 441.08ZM216.791 441.08C215.925 441.08 215.111 440.953 214.351 440.7C213.605 440.447 213.025 440.127 212.611 439.74L213.071 438.94C213.471 439.287 214.005 439.587 214.671 439.84C215.338 440.08 216.058 440.2 216.831 440.2C217.925 440.2 218.711 440.02 219.191 439.66C219.671 439.3 219.911 438.827 219.911 438.24C219.911 437.813 219.785 437.48 219.531 437.24C219.291 436.987 218.965 436.793 218.551 436.66C218.138 436.527 217.685 436.42 217.191 436.34C216.698 436.247 216.205 436.147 215.711 436.04C215.218 435.933 214.765 435.78 214.351 435.58C213.938 435.38 213.605 435.107 213.351 434.76C213.111 434.4 212.991 433.927 212.991 433.34C212.991 432.807 213.138 432.327 213.431 431.9C213.725 431.473 214.165 431.133 214.751 430.88C215.338 430.613 216.071 430.48 216.951 430.48C217.605 430.48 218.258 430.573 218.911 430.76C219.578 430.947 220.118 431.193 220.531 431.5L220.071 432.3C219.631 431.967 219.138 431.727 218.591 431.58C218.045 431.433 217.491 431.36 216.931 431.36C215.918 431.36 215.171 431.547 214.691 431.92C214.225 432.293 213.991 432.76 213.991 433.32C213.991 433.76 214.111 434.113 214.351 434.38C214.605 434.633 214.938 434.833 215.351 434.98C215.765 435.113 216.218 435.227 216.711 435.32C217.205 435.4 217.698 435.493 218.191 435.6C218.685 435.707 219.138 435.86 219.551 436.06C219.965 436.247 220.291 436.513 220.531 436.86C220.785 437.193 220.911 437.647 220.911 438.22C220.911 438.793 220.751 439.293 220.431 439.72C220.125 440.147 219.665 440.48 219.051 440.72C218.438 440.96 217.685 441.08 216.791 441.08ZM227.842 441.08C226.829 441.08 225.922 440.853 225.122 440.4C224.335 439.947 223.709 439.32 223.242 438.52C222.789 437.72 222.562 436.807 222.562 435.78C222.562 434.74 222.789 433.82 223.242 433.02C223.709 432.22 224.335 431.6 225.122 431.16C225.922 430.707 226.829 430.48 227.842 430.48C228.682 430.48 229.442 430.64 230.122 430.96C230.815 431.28 231.375 431.76 231.802 432.4L231.062 432.94C230.689 432.407 230.222 432.013 229.662 431.76C229.102 431.507 228.495 431.38 227.842 431.38C227.029 431.38 226.295 431.567 225.642 431.94C225.002 432.3 224.495 432.813 224.122 433.48C223.762 434.133 223.582 434.9 223.582 435.78C223.582 436.66 223.762 437.433 224.122 438.1C224.495 438.753 225.002 439.267 225.642 439.64C226.295 440 227.029 440.18 227.842 440.18C228.495 440.18 229.102 440.053 229.662 439.8C230.222 439.547 230.689 439.153 231.062 438.62L231.802 439.16C231.375 439.8 230.815 440.28 230.122 440.6C229.442 440.92 228.682 441.08 227.842 441.08ZM234.796 441V430.56H235.756V433.42L235.656 433.1C235.949 432.26 236.442 431.613 237.136 431.16C237.829 430.707 238.696 430.48 239.736 430.48V431.46C239.696 431.46 239.656 431.46 239.616 431.46C239.576 431.447 239.536 431.44 239.496 431.44C238.336 431.44 237.429 431.807 236.776 432.54C236.122 433.26 235.796 434.267 235.796 435.56V441H234.796ZM242.491 441V430.56H243.491V441H242.491ZM242.991 428.02C242.764 428.02 242.571 427.94 242.411 427.78C242.251 427.62 242.171 427.433 242.171 427.22C242.171 426.993 242.251 426.8 242.411 426.64C242.571 426.48 242.764 426.4 242.991 426.4C243.231 426.4 243.424 426.48 243.571 426.64C243.731 426.787 243.811 426.973 243.811 427.2C243.811 427.427 243.731 427.62 243.571 427.78C243.424 427.94 243.231 428.02 242.991 428.02ZM252.946 441.08C252.026 441.08 251.193 440.867 250.446 440.44C249.713 440.013 249.126 439.407 248.686 438.62C248.259 437.82 248.046 436.873 248.046 435.78C248.046 434.687 248.259 433.747 248.686 432.96C249.126 432.16 249.713 431.547 250.446 431.12C251.193 430.693 252.026 430.48 252.946 430.48C253.933 430.48 254.813 430.707 255.586 431.16C256.373 431.6 256.986 432.22 257.426 433.02C257.879 433.82 258.106 434.74 258.106 435.78C258.106 436.82 257.879 437.74 257.426 438.54C256.986 439.34 256.373 439.967 255.586 440.42C254.813 440.86 253.933 441.08 252.946 441.08ZM247.706 444.88V430.56H248.666V433.98L248.506 435.8L248.706 437.62V444.88H247.706ZM252.886 440.18C253.686 440.18 254.406 440 255.046 439.64C255.686 439.267 256.186 438.747 256.546 438.08C256.919 437.413 257.106 436.647 257.106 435.78C257.106 434.9 256.919 434.133 256.546 433.48C256.186 432.813 255.686 432.3 255.046 431.94C254.406 431.567 253.686 431.38 252.886 431.38C252.086 431.38 251.366 431.567 250.726 431.94C250.099 432.3 249.599 432.813 249.226 433.48C248.866 434.133 248.686 434.9 248.686 435.78C248.686 436.647 248.866 437.413 249.226 438.08C249.599 438.747 250.099 439.267 250.726 439.64C251.366 440 252.086 440.18 252.886 440.18ZM264.242 441.08C263.322 441.08 262.615 440.827 262.122 440.32C261.642 439.813 261.402 439.12 261.402 438.24V428.28H262.402V438.14C262.402 438.807 262.569 439.32 262.902 439.68C263.235 440.04 263.715 440.22 264.342 440.22C264.995 440.22 265.535 440.027 265.962 439.64L266.382 440.34C266.115 440.593 265.789 440.78 265.402 440.9C265.029 441.02 264.642 441.08 264.242 441.08ZM259.482 431.42V430.56H265.722V431.42H259.482ZM269.171 441V430.56H270.171V441H269.171ZM269.671 428.02C269.444 428.02 269.251 427.94 269.091 427.78C268.931 427.62 268.851 427.433 268.851 427.22C268.851 426.993 268.931 426.8 269.091 426.64C269.251 426.48 269.444 426.4 269.671 426.4C269.911 426.4 270.104 426.48 270.251 426.64C270.411 426.787 270.491 426.973 270.491 427.2C270.491 427.427 270.411 427.62 270.251 427.78C270.104 427.94 269.911 428.02 269.671 428.02ZM278.466 441.08C277.466 441.08 276.572 440.853 275.786 440.4C275.012 439.947 274.392 439.32 273.926 438.52C273.472 437.72 273.246 436.807 273.246 435.78C273.246 434.74 273.472 433.827 273.926 433.04C274.392 432.24 275.012 431.613 275.786 431.16C276.572 430.707 277.466 430.48 278.466 430.48C279.466 430.48 280.359 430.707 281.146 431.16C281.932 431.613 282.552 432.24 283.006 433.04C283.459 433.827 283.686 434.74 283.686 435.78C283.686 436.807 283.459 437.72 283.006 438.52C282.552 439.32 281.932 439.947 281.146 440.4C280.359 440.853 279.466 441.08 278.466 441.08ZM278.466 440.18C279.266 440.18 279.986 440 280.626 439.64C281.266 439.267 281.766 438.747 282.126 438.08C282.486 437.413 282.666 436.647 282.666 435.78C282.666 434.9 282.486 434.133 282.126 433.48C281.766 432.813 281.266 432.3 280.626 431.94C279.986 431.567 279.266 431.38 278.466 431.38C277.666 431.38 276.946 431.567 276.306 431.94C275.679 432.3 275.179 432.813 274.806 433.48C274.446 434.133 274.266 434.9 274.266 435.78C274.266 436.647 274.446 437.413 274.806 438.08C275.179 438.747 275.679 439.267 276.306 439.64C276.946 440 277.666 440.18 278.466 440.18ZM291.888 430.48C292.741 430.48 293.481 430.647 294.108 430.98C294.748 431.3 295.241 431.793 295.588 432.46C295.948 433.113 296.128 433.927 296.128 434.9V441H295.128V434.98C295.128 433.807 294.828 432.913 294.228 432.3C293.641 431.687 292.815 431.38 291.748 431.38C290.935 431.38 290.228 431.547 289.628 431.88C289.028 432.213 288.568 432.68 288.248 433.28C287.941 433.88 287.788 434.6 287.788 435.44V441H286.788V430.56H287.748V433.46L287.608 433.14C287.928 432.313 288.455 431.667 289.188 431.2C289.921 430.72 290.821 430.48 291.888 430.48Z" fill="white"/>
    <path d="M85 443.5H298.128V444.5H85V443.5Z" fill="white"/>
    <path d="M53.2 386.32V370C53.2 367.6 53.7067 365.547 54.72 363.84C55.76 362.133 57.2533 360.827 59.2 359.92C61.1467 358.987 63.48 358.52 66.2 358.52C67.8533 358.52 69.3467 358.68 70.68 359C72.0133 359.293 73.2 359.747 74.24 360.36L72.28 365.48C71.4267 364.947 70.48 364.573 69.44 364.36C68.4 364.147 67.3467 364.04 66.28 364.04C64.1467 364.04 62.52 364.533 61.4 365.52C60.28 366.48 59.72 367.933 59.72 369.88V386.32H53.2ZM49.2 387V381.8H73.44V387H49.2ZM49.2 374.96V371.04H69.32V374.96H49.2ZM81.1066 387V361.4L83.9066 364.2H75.5066V359H87.5866V387H81.1066ZM92.6906 393.16L95.3306 383.56L96.2106 387.16C95.064 387.16 94.1173 386.827 93.3706 386.16C92.6506 385.493 92.2906 384.573 92.2906 383.4C92.2906 382.227 92.664 381.293 93.4106 380.6C94.1573 379.907 95.0773 379.56 96.1706 379.56C97.2906 379.56 98.2106 379.92 98.9306 380.64C99.6506 381.333 100.011 382.253 100.011 383.4C100.011 383.747 99.984 384.093 99.9306 384.44C99.8773 384.76 99.7706 385.16 99.6106 385.64C99.4773 386.093 99.2506 386.68 98.9306 387.4L96.6506 393.16H92.6906ZM112.759 358.52C115.346 358.52 117.573 359.053 119.439 360.12C121.306 361.187 122.746 362.747 123.759 364.8C124.773 366.827 125.279 369.36 125.279 372.4C125.279 375.627 124.666 378.36 123.439 380.6C122.239 382.84 120.573 384.547 118.439 385.72C116.306 386.893 113.826 387.48 110.999 387.48C109.533 387.48 108.119 387.32 106.759 387C105.399 386.68 104.226 386.2 103.239 385.56L105.639 380.8C106.413 381.333 107.239 381.707 108.119 381.92C108.999 382.107 109.919 382.2 110.879 382.2C113.279 382.2 115.186 381.467 116.599 380C118.039 378.533 118.759 376.36 118.759 373.48C118.759 373 118.746 372.467 118.719 371.88C118.693 371.293 118.626 370.707 118.519 370.12L120.279 371.8C119.826 372.84 119.186 373.72 118.359 374.44C117.533 375.133 116.573 375.667 115.479 376.04C114.386 376.387 113.159 376.56 111.799 376.56C110.013 376.56 108.386 376.2 106.919 375.48C105.479 374.76 104.319 373.747 103.439 372.44C102.586 371.133 102.159 369.6 102.159 367.84C102.159 365.92 102.626 364.267 103.559 362.88C104.519 361.493 105.799 360.427 107.399 359.68C109.026 358.907 110.813 358.52 112.759 358.52ZM113.159 363.36C112.226 363.36 111.413 363.533 110.719 363.88C110.026 364.2 109.479 364.68 109.079 365.32C108.679 365.933 108.479 366.667 108.479 367.52C108.479 368.8 108.906 369.827 109.759 370.6C110.639 371.347 111.799 371.72 113.239 371.72C114.173 371.72 114.999 371.547 115.719 371.2C116.466 370.827 117.039 370.32 117.439 369.68C117.839 369.04 118.039 368.32 118.039 367.52C118.039 366.72 117.839 366.013 117.439 365.4C117.066 364.76 116.519 364.267 115.799 363.92C115.079 363.547 114.199 363.36 113.159 363.36ZM138.228 358.52C140.815 358.52 143.041 359.053 144.908 360.12C146.775 361.187 148.215 362.747 149.228 364.8C150.241 366.827 150.748 369.36 150.748 372.4C150.748 375.627 150.135 378.36 148.908 380.6C147.708 382.84 146.041 384.547 143.908 385.72C141.775 386.893 139.295 387.48 136.468 387.48C135.001 387.48 133.588 387.32 132.228 387C130.868 386.68 129.695 386.2 128.708 385.56L131.108 380.8C131.881 381.333 132.708 381.707 133.588 381.92C134.468 382.107 135.388 382.2 136.348 382.2C138.748 382.2 140.655 381.467 142.068 380C143.508 378.533 144.228 376.36 144.228 373.48C144.228 373 144.215 372.467 144.188 371.88C144.161 371.293 144.095 370.707 143.988 370.12L145.748 371.8C145.295 372.84 144.655 373.72 143.828 374.44C143.001 375.133 142.041 375.667 140.948 376.04C139.855 376.387 138.628 376.56 137.268 376.56C135.481 376.56 133.855 376.2 132.388 375.48C130.948 374.76 129.788 373.747 128.908 372.44C128.055 371.133 127.628 369.6 127.628 367.84C127.628 365.92 128.095 364.267 129.028 362.88C129.988 361.493 131.268 360.427 132.868 359.68C134.495 358.907 136.281 358.52 138.228 358.52ZM138.628 363.36C137.695 363.36 136.881 363.533 136.188 363.88C135.495 364.2 134.948 364.68 134.548 365.32C134.148 365.933 133.948 366.667 133.948 367.52C133.948 368.8 134.375 369.827 135.228 370.6C136.108 371.347 137.268 371.72 138.708 371.72C139.641 371.72 140.468 371.547 141.188 371.2C141.935 370.827 142.508 370.32 142.908 369.68C143.308 369.04 143.508 368.32 143.508 367.52C143.508 366.72 143.308 366.013 142.908 365.4C142.535 364.76 141.988 364.267 141.268 363.92C140.548 363.547 139.668 363.36 138.628 363.36ZM163.377 387.48C161.43 387.48 159.497 387.227 157.577 386.72C155.684 386.187 154.057 385.44 152.697 384.48L155.257 379.52C156.324 380.293 157.55 380.907 158.937 381.36C160.35 381.813 161.777 382.04 163.217 382.04C164.844 382.04 166.124 381.72 167.057 381.08C167.99 380.44 168.457 379.547 168.457 378.4C168.457 377.68 168.27 377.04 167.897 376.48C167.524 375.92 166.857 375.493 165.897 375.2C164.964 374.907 163.644 374.76 161.937 374.76H154.777L156.217 359H173.297V364.2H158.537L161.897 361.24L160.897 372.48L157.537 369.52H163.457C166.23 369.52 168.457 369.907 170.137 370.68C171.844 371.427 173.084 372.453 173.857 373.76C174.63 375.067 175.017 376.547 175.017 378.2C175.017 379.853 174.604 381.387 173.777 382.8C172.95 384.187 171.67 385.32 169.937 386.2C168.23 387.053 166.044 387.48 163.377 387.48ZM177.886 393.16L180.526 383.56L181.406 387.16C180.259 387.16 179.313 386.827 178.566 386.16C177.846 385.493 177.486 384.573 177.486 383.4C177.486 382.227 177.859 381.293 178.606 380.6C179.353 379.907 180.273 379.56 181.366 379.56C182.486 379.56 183.406 379.92 184.126 380.64C184.846 381.333 185.206 382.253 185.206 383.4C185.206 383.747 185.179 384.093 185.126 384.44C185.073 384.76 184.966 385.16 184.806 385.64C184.673 386.093 184.446 386.68 184.126 387.4L181.846 393.16H177.886ZM199.607 387.48C197.314 387.48 195.26 386.92 193.447 385.8C191.634 384.653 190.207 383 189.167 380.84C188.127 378.68 187.607 376.067 187.607 373C187.607 369.933 188.127 367.32 189.167 365.16C190.207 363 191.634 361.36 193.447 360.24C195.26 359.093 197.314 358.52 199.607 358.52C201.927 358.52 203.98 359.093 205.767 360.24C207.58 361.36 209.007 363 210.047 365.16C211.087 367.32 211.607 369.933 211.607 373C211.607 376.067 211.087 378.68 210.047 380.84C209.007 383 207.58 384.653 205.767 385.8C203.98 386.92 201.927 387.48 199.607 387.48ZM199.607 382C200.7 382 201.647 381.693 202.447 381.08C203.274 380.467 203.914 379.493 204.367 378.16C204.847 376.827 205.087 375.107 205.087 373C205.087 370.893 204.847 369.173 204.367 367.84C203.914 366.507 203.274 365.533 202.447 364.92C201.647 364.307 200.7 364 199.607 364C198.54 364 197.594 364.307 196.767 364.92C195.967 365.533 195.327 366.507 194.847 367.84C194.394 369.173 194.167 370.893 194.167 373C194.167 375.107 194.394 376.827 194.847 378.16C195.327 379.493 195.967 380.467 196.767 381.08C197.594 381.693 198.54 382 199.607 382ZM226.755 387.48C224.462 387.48 222.409 386.92 220.595 385.8C218.782 384.653 217.355 383 216.315 380.84C215.275 378.68 214.755 376.067 214.755 373C214.755 369.933 215.275 367.32 216.315 365.16C217.355 363 218.782 361.36 220.595 360.24C222.409 359.093 224.462 358.52 226.755 358.52C229.075 358.52 231.129 359.093 232.915 360.24C234.729 361.36 236.155 363 237.195 365.16C238.235 367.32 238.755 369.933 238.755 373C238.755 376.067 238.235 378.68 237.195 380.84C236.155 383 234.729 384.653 232.915 385.8C231.129 386.92 229.075 387.48 226.755 387.48ZM226.755 382C227.849 382 228.795 381.693 229.595 381.08C230.422 380.467 231.062 379.493 231.515 378.16C231.995 376.827 232.235 375.107 232.235 373C232.235 370.893 231.995 369.173 231.515 367.84C231.062 366.507 230.422 365.533 229.595 364.92C228.795 364.307 227.849 364 226.755 364C225.689 364 224.742 364.307 223.915 364.92C223.115 365.533 222.475 366.507 221.995 367.84C221.542 369.173 221.315 370.893 221.315 373C221.315 375.107 221.542 376.827 221.995 378.16C222.475 379.493 223.115 380.467 223.915 381.08C224.742 381.693 225.689 382 226.755 382ZM268.512 387.48C266.299 387.48 264.259 387.133 262.392 386.44C260.552 385.72 258.939 384.707 257.552 383.4C256.192 382.093 255.125 380.56 254.352 378.8C253.605 377.04 253.232 375.107 253.232 373C253.232 370.893 253.605 368.96 254.352 367.2C255.125 365.44 256.205 363.907 257.592 362.6C258.979 361.293 260.605 360.293 262.472 359.6C264.339 358.88 266.392 358.52 268.632 358.52C271.112 358.52 273.339 358.933 275.312 359.76C277.312 360.587 278.992 361.787 280.352 363.36L276.192 367.2C275.179 366.133 274.072 365.347 272.872 364.84C271.672 364.307 270.365 364.04 268.952 364.04C267.592 364.04 266.352 364.253 265.232 364.68C264.112 365.107 263.139 365.72 262.312 366.52C261.512 367.32 260.885 368.267 260.432 369.36C260.005 370.453 259.792 371.667 259.792 373C259.792 374.307 260.005 375.507 260.432 376.6C260.885 377.693 261.512 378.653 262.312 379.48C263.139 380.28 264.099 380.893 265.192 381.32C266.312 381.747 267.539 381.96 268.872 381.96C270.152 381.96 271.392 381.76 272.592 381.36C273.819 380.933 275.005 380.227 276.152 379.24L279.832 383.92C278.312 385.067 276.539 385.947 274.512 386.56C272.512 387.173 270.512 387.48 268.512 387.48ZM273.912 383.08V372.56H279.832V383.92L273.912 383.08ZM285.851 387V359H299.531C303.051 359 305.691 359.667 307.451 361C309.238 362.333 310.131 364.093 310.131 366.28C310.131 367.747 309.771 369.027 309.051 370.12C308.331 371.187 307.345 372.013 306.091 372.6C304.838 373.187 303.398 373.48 301.771 373.48L302.531 371.84C304.291 371.84 305.851 372.133 307.211 372.72C308.571 373.28 309.625 374.12 310.371 375.24C311.145 376.36 311.531 377.733 311.531 379.36C311.531 381.76 310.585 383.64 308.691 385C306.798 386.333 304.011 387 300.331 387H285.851ZM292.291 382.12H299.851C301.531 382.12 302.798 381.853 303.651 381.32C304.531 380.76 304.971 379.88 304.971 378.68C304.971 377.507 304.531 376.64 303.651 376.08C302.798 375.493 301.531 375.2 299.851 375.2H291.811V370.48H298.731C300.305 370.48 301.505 370.213 302.331 369.68C303.185 369.12 303.611 368.28 303.611 367.16C303.611 366.067 303.185 365.253 302.331 364.72C301.505 364.16 300.305 363.88 298.731 363.88H292.291V382.12ZM316.437 387V359H328.557C331.064 359 333.224 359.413 335.037 360.24C336.851 361.04 338.251 362.2 339.237 363.72C340.224 365.24 340.717 367.053 340.717 369.16C340.717 371.24 340.224 373.04 339.237 374.56C338.251 376.08 336.851 377.253 335.037 378.08C333.224 378.88 331.064 379.28 328.557 379.28H320.037L322.917 376.36V387H316.437ZM322.917 377.08L320.037 374H328.197C330.197 374 331.691 373.573 332.677 372.72C333.664 371.867 334.157 370.68 334.157 369.16C334.157 367.613 333.664 366.413 332.677 365.56C331.691 364.707 330.197 364.28 328.197 364.28H320.037L322.917 361.2V377.08Z" fill="white"/>
    <path d="M43.9209 38.9581C43.3455 39.5541 43.3621 40.5037 43.9581 41.0791L53.67 50.4561C54.266 51.0315 55.2156 51.0149 55.791 50.4189C56.3664 49.8229 56.3498 48.8733 55.7538 48.2979L47.121 39.9628L55.4561 31.33C56.0316 30.734 56.0149 29.7844 55.4189 29.209C54.823 28.6336 53.8734 28.6502 53.2979 29.2462L43.9209 38.9581ZM101.974 37.5002L44.9737 38.5002L45.0263 41.4998L102.026 40.4998L101.974 37.5002Z" fill="white"/>
    <path d="M109.14 460V454.28L109.88 456.24L103.72 446H107.16L111.88 453.86H109.9L114.64 446H117.82L111.66 456.24L112.38 454.28V460H109.14ZM123.104 460.16C121.878 460.16 120.798 459.92 119.864 459.44C118.944 458.96 118.231 458.307 117.724 457.48C117.218 456.64 116.964 455.687 116.964 454.62C116.964 453.54 117.211 452.587 117.704 451.76C118.211 450.92 118.898 450.267 119.764 449.8C120.631 449.32 121.611 449.08 122.704 449.08C123.758 449.08 124.704 449.307 125.544 449.76C126.398 450.2 127.071 450.84 127.564 451.68C128.058 452.507 128.304 453.5 128.304 454.66C128.304 454.78 128.298 454.92 128.284 455.08C128.271 455.227 128.258 455.367 128.244 455.5H119.504V453.68H126.604L125.404 454.22C125.404 453.66 125.291 453.173 125.064 452.76C124.838 452.347 124.524 452.027 124.124 451.8C123.724 451.56 123.258 451.44 122.724 451.44C122.191 451.44 121.718 451.56 121.304 451.8C120.904 452.027 120.591 452.353 120.364 452.78C120.138 453.193 120.024 453.687 120.024 454.26V454.74C120.024 455.327 120.151 455.847 120.404 456.3C120.671 456.74 121.038 457.08 121.504 457.32C121.984 457.547 122.544 457.66 123.184 457.66C123.758 457.66 124.258 457.573 124.684 457.4C125.124 457.227 125.524 456.967 125.884 456.62L127.544 458.42C127.051 458.98 126.431 459.413 125.684 459.72C124.938 460.013 124.078 460.16 123.104 460.16ZM136.688 460V457.9L136.488 457.44V453.68C136.488 453.013 136.282 452.493 135.868 452.12C135.468 451.747 134.848 451.56 134.008 451.56C133.435 451.56 132.868 451.653 132.308 451.84C131.762 452.013 131.295 452.253 130.908 452.56L129.788 450.38C130.375 449.967 131.082 449.647 131.908 449.42C132.735 449.193 133.575 449.08 134.428 449.08C136.068 449.08 137.342 449.467 138.248 450.24C139.155 451.013 139.608 452.22 139.608 453.86V460H136.688ZM133.408 460.16C132.568 460.16 131.848 460.02 131.248 459.74C130.648 459.447 130.188 459.053 129.868 458.56C129.548 458.067 129.388 457.513 129.388 456.9C129.388 456.26 129.542 455.7 129.848 455.22C130.168 454.74 130.668 454.367 131.348 454.1C132.028 453.82 132.915 453.68 134.008 453.68H136.868V455.5H134.348C133.615 455.5 133.108 455.62 132.828 455.86C132.562 456.1 132.428 456.4 132.428 456.76C132.428 457.16 132.582 457.48 132.888 457.72C133.208 457.947 133.642 458.06 134.188 458.06C134.708 458.06 135.175 457.94 135.588 457.7C136.002 457.447 136.302 457.08 136.488 456.6L136.968 458.04C136.742 458.733 136.328 459.26 135.728 459.62C135.128 459.98 134.355 460.16 133.408 460.16ZM142.432 460V449.24H145.412V452.28L144.992 451.4C145.312 450.64 145.826 450.067 146.532 449.68C147.239 449.28 148.099 449.08 149.112 449.08V451.96C148.979 451.947 148.859 451.94 148.752 451.94C148.646 451.927 148.532 451.92 148.412 451.92C147.559 451.92 146.866 452.167 146.332 452.66C145.812 453.14 145.552 453.893 145.552 454.92V460H142.432ZM150.987 460V445.16H154.107V460H150.987ZM158.363 464.04C157.803 464.04 157.249 463.953 156.703 463.78C156.156 463.607 155.709 463.367 155.362 463.06L156.503 460.84C156.743 461.053 157.016 461.22 157.323 461.34C157.643 461.46 157.956 461.52 158.263 461.52C158.703 461.52 159.049 461.413 159.303 461.2C159.569 461 159.809 460.66 160.023 460.18L160.583 458.86L160.823 458.52L164.683 449.24H167.683L162.823 460.66C162.476 461.527 162.076 462.207 161.623 462.7C161.183 463.193 160.689 463.54 160.143 463.74C159.609 463.94 159.016 464.04 158.363 464.04ZM160.203 460.42L155.402 449.24H158.623L162.343 458.24L160.203 460.42Z" fill="#6F4FF2"/>
    <rect x="96" y="611" width="199" height="41" rx="15" fill="#6F4FF2"/>
    <rect x="98" y="611" width="82" height="41" rx="15" fill="white" fill-opacity="0.7"/>
    <path d="M109.14 639V633.28L109.88 635.24L103.72 625H107.16L111.88 632.86H109.9L114.64 625H117.82L111.66 635.24L112.38 633.28V639H109.14ZM123.104 639.16C121.878 639.16 120.798 638.92 119.864 638.44C118.944 637.96 118.231 637.307 117.724 636.48C117.218 635.64 116.964 634.687 116.964 633.62C116.964 632.54 117.211 631.587 117.704 630.76C118.211 629.92 118.898 629.267 119.764 628.8C120.631 628.32 121.611 628.08 122.704 628.08C123.758 628.08 124.704 628.307 125.544 628.76C126.398 629.2 127.071 629.84 127.564 630.68C128.058 631.507 128.304 632.5 128.304 633.66C128.304 633.78 128.298 633.92 128.284 634.08C128.271 634.227 128.258 634.367 128.244 634.5H119.504V632.68H126.604L125.404 633.22C125.404 632.66 125.291 632.173 125.064 631.76C124.838 631.347 124.524 631.027 124.124 630.8C123.724 630.56 123.258 630.44 122.724 630.44C122.191 630.44 121.718 630.56 121.304 630.8C120.904 631.027 120.591 631.353 120.364 631.78C120.138 632.193 120.024 632.687 120.024 633.26V633.74C120.024 634.327 120.151 634.847 120.404 635.3C120.671 635.74 121.038 636.08 121.504 636.32C121.984 636.547 122.544 636.66 123.184 636.66C123.758 636.66 124.258 636.573 124.684 636.4C125.124 636.227 125.524 635.967 125.884 635.62L127.544 637.42C127.051 637.98 126.431 638.413 125.684 638.72C124.938 639.013 124.078 639.16 123.104 639.16ZM136.688 639V636.9L136.488 636.44V632.68C136.488 632.013 136.282 631.493 135.868 631.12C135.468 630.747 134.848 630.56 134.008 630.56C133.435 630.56 132.868 630.653 132.308 630.84C131.762 631.013 131.295 631.253 130.908 631.56L129.788 629.38C130.375 628.967 131.082 628.647 131.908 628.42C132.735 628.193 133.575 628.08 134.428 628.08C136.068 628.08 137.342 628.467 138.248 629.24C139.155 630.013 139.608 631.22 139.608 632.86V639H136.688ZM133.408 639.16C132.568 639.16 131.848 639.02 131.248 638.74C130.648 638.447 130.188 638.053 129.868 637.56C129.548 637.067 129.388 636.513 129.388 635.9C129.388 635.26 129.542 634.7 129.848 634.22C130.168 633.74 130.668 633.367 131.348 633.1C132.028 632.82 132.915 632.68 134.008 632.68H136.868V634.5H134.348C133.615 634.5 133.108 634.62 132.828 634.86C132.562 635.1 132.428 635.4 132.428 635.76C132.428 636.16 132.582 636.48 132.888 636.72C133.208 636.947 133.642 637.06 134.188 637.06C134.708 637.06 135.175 636.94 135.588 636.7C136.002 636.447 136.302 636.08 136.488 635.6L136.968 637.04C136.742 637.733 136.328 638.26 135.728 638.62C135.128 638.98 134.355 639.16 133.408 639.16ZM142.432 639V628.24H145.412V631.28L144.992 630.4C145.312 629.64 145.826 629.067 146.532 628.68C147.239 628.28 148.099 628.08 149.112 628.08V630.96C148.979 630.947 148.859 630.94 148.752 630.94C148.646 630.927 148.532 630.92 148.412 630.92C147.559 630.92 146.866 631.167 146.332 631.66C145.812 632.14 145.552 632.893 145.552 633.92V639H142.432ZM150.987 639V624.16H154.107V639H150.987ZM158.363 643.04C157.803 643.04 157.249 642.953 156.703 642.78C156.156 642.607 155.709 642.367 155.362 642.06L156.503 639.84C156.743 640.053 157.016 640.22 157.323 640.34C157.643 640.46 157.956 640.52 158.263 640.52C158.703 640.52 159.049 640.413 159.303 640.2C159.569 640 159.809 639.66 160.023 639.18L160.583 637.86L160.823 637.52L164.683 628.24H167.683L162.823 639.66C162.476 640.527 162.076 641.207 161.623 641.7C161.183 642.193 160.689 642.54 160.143 642.74C159.609 642.94 159.016 643.04 158.363 643.04ZM160.203 639.42L155.402 628.24H158.623L162.343 637.24L160.203 639.42Z" fill="#6F4FF2"/>
    <path d="M197.66 639V625H200.34L206.3 634.88H204.88L210.74 625H213.4L213.44 639H210.4L210.38 629.66H210.94L206.26 637.52H204.8L200.02 629.66H200.7V639H197.66ZM221.662 639.16C220.515 639.16 219.495 638.92 218.602 638.44C217.722 637.96 217.022 637.307 216.502 636.48C215.995 635.64 215.742 634.687 215.742 633.62C215.742 632.54 215.995 631.587 216.502 630.76C217.022 629.92 217.722 629.267 218.602 628.8C219.495 628.32 220.515 628.08 221.662 628.08C222.795 628.08 223.808 628.32 224.702 628.8C225.595 629.267 226.295 629.913 226.802 630.74C227.308 631.567 227.562 632.527 227.562 633.62C227.562 634.687 227.308 635.64 226.802 636.48C226.295 637.307 225.595 637.96 224.702 638.44C223.808 638.92 222.795 639.16 221.662 639.16ZM221.662 636.6C222.182 636.6 222.648 636.48 223.062 636.24C223.475 636 223.802 635.66 224.042 635.22C224.282 634.767 224.402 634.233 224.402 633.62C224.402 632.993 224.282 632.46 224.042 632.02C223.802 631.58 223.475 631.24 223.062 631C222.648 630.76 222.182 630.64 221.662 630.64C221.142 630.64 220.675 630.76 220.262 631C219.848 631.24 219.515 631.58 219.262 632.02C219.022 632.46 218.902 632.993 218.902 633.62C218.902 634.233 219.022 634.767 219.262 635.22C219.515 635.66 219.848 636 220.262 636.24C220.675 636.48 221.142 636.6 221.662 636.6ZM236.187 628.08C237.04 628.08 237.8 628.253 238.467 628.6C239.147 628.933 239.68 629.453 240.067 630.16C240.454 630.853 240.647 631.747 240.647 632.84V639H237.527V633.32C237.527 632.453 237.334 631.813 236.947 631.4C236.574 630.987 236.04 630.78 235.347 630.78C234.854 630.78 234.407 630.887 234.007 631.1C233.62 631.3 233.314 631.613 233.087 632.04C232.874 632.467 232.767 633.013 232.767 633.68V639H229.647V628.24H232.627V631.22L232.067 630.32C232.454 629.6 233.007 629.047 233.727 628.66C234.447 628.273 235.267 628.08 236.187 628.08ZM247.875 639.16C246.608 639.16 245.622 638.84 244.915 638.2C244.208 637.547 243.855 636.58 243.855 635.3V625.86H246.975V635.26C246.975 635.713 247.095 636.067 247.335 636.32C247.575 636.56 247.902 636.68 248.315 636.68C248.808 636.68 249.228 636.547 249.575 636.28L250.415 638.48C250.095 638.707 249.708 638.88 249.255 639C248.815 639.107 248.355 639.16 247.875 639.16ZM242.195 630.88V628.48H249.655V630.88H242.195ZM258.707 628.08C259.56 628.08 260.32 628.253 260.987 628.6C261.667 628.933 262.2 629.453 262.587 630.16C262.973 630.853 263.167 631.747 263.167 632.84V639H260.047V633.32C260.047 632.453 259.853 631.813 259.467 631.4C259.093 630.987 258.56 630.78 257.867 630.78C257.373 630.78 256.927 630.887 256.527 631.1C256.14 631.3 255.833 631.613 255.607 632.04C255.393 632.467 255.287 633.013 255.287 633.68V639H252.167V624.16H255.287V631.22L254.587 630.32C254.973 629.6 255.527 629.047 256.247 628.66C256.967 628.273 257.787 628.08 258.707 628.08ZM265.995 639V624.16H269.115V639H265.995ZM273.37 643.04C272.81 643.04 272.257 642.953 271.71 642.78C271.164 642.607 270.717 642.367 270.37 642.06L271.51 639.84C271.75 640.053 272.024 640.22 272.33 640.34C272.65 640.46 272.964 640.52 273.27 640.52C273.71 640.52 274.057 640.413 274.31 640.2C274.577 640 274.817 639.66 275.03 639.18L275.59 637.86L275.83 637.52L279.69 628.24H282.69L277.83 639.66C277.484 640.527 277.084 641.207 276.63 641.7C276.19 642.193 275.697 642.54 275.15 642.74C274.617 642.94 274.024 643.04 273.37 643.04ZM275.21 639.42L270.41 628.24H273.63L277.35 637.24L275.21 639.42Z" fill="white"/>
    </svg>
    