<svg width="104" height="16" viewBox="0 0 104 16" fill="none" xmlns="http://www.w3.org/2000/svg">
    <g clip-path="url(#clip0_325_3033)">
    <path d="M6.53951 2.65667H8.00018V0.112667C7.74818 0.078 6.88151 0 5.87218 0C3.76618 0 2.32351 1.32467 2.32351 3.75933V6H-0.000488281V8.844H2.32351V16H5.17284V8.84467H7.40284L7.75684 6.00067H5.17218V4.04133C5.17285 3.21933 5.39418 2.65667 6.53951 2.65667Z" fill="#B2B2B4"/>
    </g>
    <g clip-path="url(#clip1_325_3033)">
    <path d="M38.4806 4.00704C38.3485 4.12082 38.2115 4.22911 38.0698 4.33157L37.8513 4.48957L37.8633 4.75893C37.8692 4.892 37.8722 5.02835 37.8722 5.16173C37.8722 9.28329 34.7361 14.0005 29.0334 14.0005H29.0332C27.9982 14.001 26.9766 13.8193 26.0134 13.4686C27.1596 13.2685 28.2455 12.7877 29.1704 12.0612L30.2716 11.1962L28.8716 11.1681C28.2909 11.1564 27.7283 10.9637 27.2624 10.6169C27.0091 10.4284 26.7912 10.1994 26.6165 9.94083C26.8838 9.9266 27.1496 9.88385 27.4095 9.81275L27.3762 8.84031C26.7461 8.71349 26.1795 8.37241 25.7725 7.87503C25.5245 7.57194 25.3451 7.22221 25.2429 6.8498C25.5266 6.92683 25.8192 6.97083 26.1151 6.98023L27.8602 7.03563L26.4089 6.06488C25.8203 5.67117 25.4037 5.06812 25.2438 4.37828C25.1395 3.92868 25.1494 3.46421 25.2673 3.02565C26.0301 3.81876 26.9223 4.47948 27.9073 4.97857C29.1351 5.60064 30.48 5.95774 31.8546 6.02673L32.516 6.05992L32.3668 5.41471C32.2289 4.81798 32.2913 4.19242 32.5445 3.63474C32.7977 3.07706 33.2276 2.61832 33.7677 2.32945C34.3077 2.04058 34.9279 1.93766 35.5323 2.03662C36.1368 2.13558 36.6918 2.43089 37.1115 2.8769L37.3012 3.07842L37.5726 3.02473C37.7924 2.98126 38.0096 2.92749 38.2236 2.86367C38.1098 2.95956 37.988 3.04675 37.8589 3.12412L38.1736 4.04964C38.2764 4.03771 38.3787 4.0235 38.4806 4.00704ZM38.4806 4.00704C38.6456 3.86492 38.8029 3.71425 38.9518 3.55567C38.7739 3.7147 38.5803 3.85759 38.373 3.98184L38.1159 3.55298L38.0582 3.05632C38.3435 3.02317 38.6257 2.96954 38.9025 2.896M38.8579 2.09857C38.4153 2.29378 37.9518 2.44005 37.4756 2.53423L38.8579 2.09857Z" fill="#B2B2B4" stroke="#B2B2B4"/>
    </g>
    <g clip-path="url(#clip2_325_3033)">
    <path fill-rule="evenodd" clip-rule="evenodd" d="M67.2986 0.0502569C65.8266 -0.0184086 62.1807 -0.0150753 60.7074 0.0502569C59.4128 0.110923 58.2708 0.423584 57.3501 1.34423C55.9733 2.72108 55.986 4.52606 56.0039 7.06919C56.006 7.36803 56.0082 7.67706 56.0082 7.99679C56.0082 8.29603 56.0065 8.58522 56.005 8.86488C55.9904 11.4935 55.9805 13.2797 57.3501 14.6493C58.7295 16.0281 60.5544 16.0145 63.0688 15.9959C63.37 15.9936 63.6812 15.9913 64.0027 15.9913H64.0461C67.0953 15.9913 68.1544 15.9913 69.2393 15.5713C70.7212 14.996 71.8399 13.6714 71.9492 11.2921C72.0185 9.81942 72.0145 6.17415 71.9492 4.70084C71.8172 1.89223 70.3099 0.188921 67.2986 0.0502569ZM64.0027 3.89153C61.7341 3.89153 59.8974 5.73017 59.8974 7.99679C59.8974 10.2654 61.7361 12.1021 64.0027 12.1021C66.2713 12.1021 68.1079 10.2634 68.1079 7.99679C68.1079 5.72817 66.2693 3.89153 64.0027 3.89153ZM64.0027 10.6614C62.53 10.6614 61.3381 9.46877 61.3381 7.99679C61.3381 6.52482 62.5307 5.33217 64.0027 5.33217C65.4747 5.33217 66.6673 6.52482 66.6673 7.99679C66.668 9.46877 65.4753 10.6614 64.0027 10.6614ZM69.2299 3.72953C69.2299 4.25935 68.8004 4.68885 68.2706 4.68885C67.7408 4.68885 67.3113 4.25935 67.3113 3.72953C67.3113 3.19972 67.7408 2.77021 68.2706 2.77021C68.8004 2.77021 69.2299 3.19972 69.2299 3.72953Z" fill="#B2B2B4"/>
    </g>
    <g clip-path="url(#clip3_325_3033)">
    <path fill-rule="evenodd" clip-rule="evenodd" d="M88 1.92133C88 0.860667 88.8607 0 89.9213 0C90.9813 0 91.842 0.860667 91.8427 1.92133C91.8427 2.982 90.982 3.86067 89.9213 3.86067C88.8607 3.86067 88 2.982 88 1.92133ZM103.996 16V15.9993H104V10.1313C104 7.26065 103.382 5.04932 100.026 5.04932C98.4127 5.04932 97.33 5.93465 96.888 6.77398H96.8413V5.31732H93.6593V15.9993H96.9727V10.71C96.9727 9.31732 97.2367 7.97065 98.9613 7.97065C100.661 7.97065 100.686 9.55998 100.686 10.7993V16H103.996ZM88.264 5.31799H91.5813V16H88.264V5.31799Z" fill="#B2B2B4"/>
    </g>
    <defs>
    <clipPath id="clip0_325_3033">
    <rect width="8.00067" height="16" fill="white" transform="translate(-0.000488281)"/>
    </clipPath>
    <clipPath id="clip1_325_3033">
    <rect width="16" height="16" fill="white" transform="translate(24)"/>
    </clipPath>
    <clipPath id="clip2_325_3033">
    <rect width="15.9997" height="16" fill="white" transform="translate(56)"/>
    </clipPath>
    <clipPath id="clip3_325_3033">
    <rect width="16" height="16" fill="white" transform="translate(88)"/>
    </clipPath>
    </defs>
    </svg>
    