<svg width="22" height="17" viewBox="0 0 22 17" fill="none" xmlns="http://www.w3.org/2000/svg">
<path d="M11 10.7676C11.7563 10.7676 12.4039 10.6116 12.9429 10.2995C13.481 9.98792 13.75 9.6132 13.75 9.17532C13.75 8.73744 13.481 8.36245 12.9429 8.05036C12.4039 7.73881 11.7563 7.58303 11 7.58303C10.2437 7.58303 9.59658 7.73881 9.0585 8.05036C8.5195 8.36245 8.25 8.73744 8.25 9.17532C8.25 9.6132 8.5195 9.98792 9.0585 10.2995C9.59658 10.6116 10.2437 10.7676 11 10.7676ZM2.75 16.3406C1.99375 16.3406 1.34658 16.1848 0.8085 15.8733C0.2695 15.5612 0 15.1862 0 14.7483V2.01001C0 1.57213 0.2695 1.19715 0.8085 0.885062C1.34658 0.573504 1.99375 0.417725 2.75 0.417725H15.125L22 5.19459V14.41L15.7094 10.7676C15.9615 10.542 16.1562 10.2966 16.2938 10.0312C16.4312 9.76579 16.5 9.48051 16.5 9.17532C16.5 8.29956 15.9615 7.54986 14.8844 6.92621C13.8073 6.30256 12.5125 5.99074 11 5.99074C9.4875 5.99074 8.19271 6.30256 7.11563 6.92621C6.03854 7.54986 5.5 8.29956 5.5 9.17532C5.5 10.0511 6.03854 10.8008 7.11563 11.4244C8.19271 12.0481 9.4875 12.3599 11 12.3599C11.5271 12.3599 12.0258 12.3201 12.496 12.2405C12.9653 12.1609 13.3948 12.0481 13.7844 11.9021L20.9 16.0222C20.6938 16.1283 20.4302 16.2079 20.1094 16.261C19.7885 16.3141 19.5021 16.3406 19.25 16.3406H2.75Z" fill="#65646A"/>
</svg>
