<svg width="24" height="17" viewBox="0 0 24 17" fill="none" xmlns="http://www.w3.org/2000/svg">
<path d="M8.71642 16.1336L8.23881 13.5859C7.9801 13.5196 7.73652 13.44 7.50806 13.3471C7.27881 13.2542 7.05473 13.1547 6.83582 13.0485L3.28358 14.0437L0 10.262L3.07463 8.70954C3.05473 8.61666 3.04478 8.52696 3.04478 8.44044V7.90304C3.04478 7.81706 3.05473 7.72763 3.07463 7.63474L0 6.08226L3.28358 2.30057L6.83582 3.29575C7.05473 3.1896 7.28358 3.09008 7.52239 2.9972C7.76119 2.90432 8 2.8247 8.23881 2.75836L8.71642 0.210693H15.2836L15.7612 2.75836C16.0199 2.8247 16.2639 2.90432 16.4931 2.9972C16.7216 3.09008 16.9453 3.1896 17.1642 3.29575L20.7164 2.30057L24 6.08226L20.9254 7.63474C20.9453 7.72763 20.9552 7.81706 20.9552 7.90304V8.44044C20.9552 8.52696 20.9353 8.61666 20.8955 8.70954L23.9701 10.262L20.6866 14.0437L17.1642 13.0485C16.9453 13.1547 16.7164 13.2542 16.4776 13.3471C16.2388 13.44 16 13.5196 15.7612 13.5859L15.2836 16.1336H8.71642ZM12.0597 10.9586C13.2139 10.9586 14.199 10.6866 15.0149 10.1426C15.8308 9.59857 16.2388 8.94175 16.2388 8.17214C16.2388 7.40253 15.8308 6.74571 15.0149 6.20168C14.199 5.65765 13.2139 5.38563 12.0597 5.38563C10.8856 5.38563 9.89532 5.65765 9.08896 6.20168C8.28338 6.74571 7.8806 7.40253 7.8806 8.17214C7.8806 8.94175 8.28338 9.59857 9.08896 10.1426C9.89532 10.6866 10.8856 10.9586 12.0597 10.9586Z" fill="#65646A"/>
</svg>
