<svg width="22" height="17" viewBox="0 0 22 17" fill="none" xmlns="http://www.w3.org/2000/svg">
<path d="M21.6802 14.7152L20.1183 15.8457C19.9122 15.994 19.6334 16.0772 19.3428 16.0772C19.0523 16.0772 18.7735 15.994 18.5674 15.8457L5.50044 6.40379C5.14276 6.47879 4.77286 6.51895 4.40052 6.5232C3.70021 6.52284 3.01014 6.40148 2.38767 6.16922C1.76521 5.93696 1.22834 5.6005 0.821695 5.18782C0.415055 4.77515 0.150393 4.29817 0.0497151 3.79655C-0.0509629 3.29494 0.0152514 2.78317 0.242853 2.3038L3.03663 4.32593L3.61958 3.90399L5.18146 2.77351L5.76441 2.35157L2.97064 0.329442C3.63293 0.164705 4.33999 0.116779 5.03303 0.189649C5.72606 0.26252 6.38505 0.454081 6.95521 0.748406C7.52537 1.04273 7.99022 1.43132 8.31111 1.88185C8.63201 2.33239 8.79967 2.83187 8.80017 3.33875C8.79429 3.60825 8.73881 3.87598 8.63519 4.13486L21.6802 13.5927C21.885 13.7418 22 13.9436 22 14.1539C22 14.3643 21.885 14.566 21.6802 14.7152ZM0.319847 13.5927C0.114987 13.7418 0 13.9436 0 14.1539C0 14.3643 0.114987 14.566 0.319847 14.7152L1.88172 15.8457C2.08781 15.994 2.36658 16.0772 2.65716 16.0772C2.94774 16.0772 3.22652 15.994 3.4326 15.8457L9.44912 11.4989L6.33637 9.24591M19.7993 0.154297L15.3997 1.74652V3.33875L13.0128 5.06632L15.2127 6.65854L17.5995 4.93098H19.7993L21.9991 1.74652L19.7993 0.154297Z" fill="#65646A"/>
</svg>
